<svg xmlns="http://www.w3.org/2000/svg" viewBox="0 0 336.91 383.26"><g id="Layer_2" data-name="Layer 2"><g id="Layer_1-2" data-name="Layer 1"><path d="M162.48,383.26c-6-1.83-12.43-2.93-18.06-5.61-15.46-7.33-25.52-19.54-30.15-36.11-.26-1-.54-1.89-.92-3.2H109q-48.27,0-96.54,0c-5.26,0-9.27-2-11.41-6.87s-.78-9,2.67-12.71c.18-.18.34-.36.51-.55,23.14-24.72,38.46-53.59,44.68-86.88,2.23-11.94,2.91-24.23,3.47-36.39.7-15.19-.54-30.52,1-45.6,3.92-39,23.58-68.44,57-88.59,6.76-4.08,14.38-6.76,21.71-9.85,2-.84,2.84-1.64,2.85-3.91,0-6.47-.31-13,.68-19.39C138.2,10.69,153.89-1.17,171.08.09a33.78,33.78,0,0,1,31,32.31c.15,4.73.23,9.49,0,14.21-.13,2.63.87,3.53,3.22,4.38,39.42,14.29,65,41.62,75.62,82.2,2.43,9.29,3,19.18,3.44,28.84.7,16.19-.1,32.45.91,48.61,2.08,33.15,13.48,63.15,33,90,4.46,6.14,9.53,11.85,14.55,17.55,3.5,4,5.36,8.22,3.13,13.31s-6.65,6.91-12.16,6.89c-31.93-.08-63.86,0-95.79,0h-4.18c-1.3,3.74-2.27,7.48-3.86,10.94-8.6,18.68-23,29.93-43.39,33.32a13.43,13.43,0,0,0-2.1.66ZM35.93,315.67h264.8c-.06-.45,0-.73-.14-.9-.76-1.14-1.56-2.25-2.34-3.38-21-30.13-33.26-63.46-35.48-100.15-1-16-.41-32.16-.79-48.24a138.26,138.26,0,0,0-1.55-19c-8-48.71-57.26-83.84-105.9-75.64C107.35,76.33,75,114.66,74.91,162.56c0,11.85.09,23.7,0,35.55-.38,36.58-9.84,70.62-28.81,101.95C42.92,305.25,39.46,310.25,35.93,315.67ZM137.08,338.5c4.29,13.67,18.33,22.93,33.22,22.26,13.36-.61,26.92-10.83,29.37-22.26ZM179.52,45.15c0-1,.18-2.08.17-3.17a80.06,80.06,0,0,0-.2-10,11.1,11.1,0,0,0-10.86-9.46c-5.33-.08-10.44,3.75-11.09,9.15-.55,4.49-.11,9.1-.11,13.53Z"/><path d="M.09,156.65c1.66-44.23,17.7-82.33,48.62-114.09,4.79-4.92,11.82-5.23,16.38-.85s4.62,11.41-.23,16.39A150.71,150.71,0,0,0,38.93,93.58,145.69,145.69,0,0,0,22.5,159.29a18.4,18.4,0,0,1-.69,5.13A11.07,11.07,0,0,1,10,172.1,11.41,11.41,0,0,1,.11,161.88C0,160.15.09,158.4.09,156.65Z"/><path d="M336.89,156.54c0,1.37,0,2.74,0,4.11-.13,6.57-5,11.54-11.28,11.51S315,167.29,314.38,160.9c-1.18-11.62-1.81-23.41-4.33-34.75-5.72-25.76-18.58-47.88-36.83-66.92a18.17,18.17,0,0,1-4.32-6.8A10.58,10.58,0,0,1,274.18,40a11.32,11.32,0,0,1,13.72,2.18,167.75,167.75,0,0,1,49,114.33Z"/></g></g></svg>