<svg xmlns="http://www.w3.org/2000/svg" viewBox="0 0 231.01 393.14"><g id="Layer_2" data-name="Layer 2"><g id="Layer_1-2" data-name="Layer 1"><path d="M200.62,393.14c11.49-3.91,18.49-13.33,26-21.88,6.11-7,5.49-18.31-.33-25.59a57,57,0,0,0-4.43-4.77Q151.46,270.49,81,200.14a32.73,32.73,0,0,0-3.89-2.87c1.75-1.83,2.76-2.94,3.82-4L222.81,51.39c8.43-8.43,11-18.83,4.7-27.28a107.81,107.81,0,0,0-20.73-20.7c-7.24-5.55-17-3.92-24.16,2A41.9,41.9,0,0,0,179.5,8.2Q93.78,93.91,8.07,179.63c-8.56,8.56-10.43,18.54-5,27.77a31.57,31.57,0,0,0,5.05,6.21Q93.76,299.36,179.58,385c3.48,3.45,8.37,5.49,12.6,8.18Z"/></g></g></svg>