<svg xmlns="http://www.w3.org/2000/svg" viewBox="0 0 231.01 393.14"><g id="Layer_2" data-name="Layer 2"><g id="Layer_1-2" data-name="Layer 1"><path d="M30.39,393.14c-11.49-3.91-18.49-13.33-26-21.88-6.11-7-5.49-18.31.33-25.59a57,57,0,0,1,4.43-4.77Q79.55,270.49,150,200.14a32.73,32.73,0,0,1,3.89-2.87c-1.75-1.83-2.76-2.94-3.82-4L8.2,51.39C-.23,43-2.79,32.56,3.5,24.11A107.81,107.81,0,0,1,24.23,3.41c7.24-5.55,17-3.92,24.16,2A41.9,41.9,0,0,1,51.51,8.2q85.73,85.71,171.43,171.43c8.56,8.56,10.43,18.54,5,27.77a31.57,31.57,0,0,1-5,6.21Q137.25,299.36,51.43,385c-3.48,3.45-8.37,5.49-12.6,8.18Z"/></g></g></svg>