<svg xmlns="http://www.w3.org/2000/svg" viewBox="0 0 839.8 839.8"><g id="Layer_2" data-name="Layer 2"><g id="Layer_1-2" data-name="Layer 1"><path d="M419.9,823.69C417,732.19,414,662.33,405.58,608c-9.21-59.31-24.84-97.27-50.68-123.11s-63.8-41.47-123.11-50.68c-54.32-8.43-124.18-11.44-215.68-14.32,91.5-2.88,161.36-5.89,215.68-14.32,59.31-9.21,97.27-24.84,123.11-50.68s41.47-63.8,50.68-123.11C414,177.47,417,107.61,419.9,16.11c2.88,91.5,5.89,161.36,14.32,215.68,9.21,59.31,24.84,97.27,50.68,123.11S548.7,396.37,608,405.58C662.33,414,732.19,417,823.69,419.9c-91.5,2.88-161.36,5.89-215.68,14.32-59.31,9.21-97.27,24.84-123.11,50.68S443.43,548.7,434.22,608C425.79,662.33,422.78,732.19,419.9,823.69Z"/><path d="M419.9,31.71c2.75,83.92,5.88,148.94,13.83,200.16,9.23,59.41,24.9,97.47,50.82,123.39s64,41.58,123.38,50.81c51.22,7.95,116.24,11.08,200.16,13.83-83.92,2.75-148.94,5.88-200.16,13.83-59.41,9.23-97.47,24.9-123.38,50.81s-41.59,64-50.82,123.39c-8,51.22-11.08,116.24-13.83,200.16-2.75-83.92-5.88-148.94-13.83-200.16-9.23-59.41-24.9-97.47-50.81-123.39s-64-41.58-123.39-50.81c-51.22-8-116.24-11.08-200.16-13.83,83.92-2.75,148.94-5.88,200.16-13.83,59.41-9.23,97.47-24.9,123.39-50.81s41.58-64,50.81-123.39C414,180.65,417.15,115.63,419.9,31.71M419.9,0C407.69,397.8,397.8,407.69,0,419.9,397.8,432.11,407.69,442,419.9,839.8,432.11,442,442,432.11,839.8,419.9,442,407.69,432.11,397.8,419.9,0Z"/></g></g></svg>