<svg xmlns="http://www.w3.org/2000/svg" viewBox="0 0 437 839.8"><g id="Layer_2" data-name="Layer 2"><g id="Layer_1-2" data-name="Layer 1"><path d="M218.5,809.31c-3.08-181.25-7-273.17-33.56-324.29-13.47-25.89-33.28-41.55-64.22-50.78C92.42,425.79,56,422.78,8.39,419.9,56,417,92.42,414,120.72,405.56c30.94-9.23,50.75-24.89,64.22-50.78,26.6-51.12,30.48-143,33.56-324.29,3.08,181.25,7,273.17,33.56,324.29,13.47,25.89,33.28,41.55,64.22,50.78C344.58,414,381,417,428.61,419.9c-47.65,2.88-84,5.89-112.33,14.34-30.94,9.23-50.75,24.89-64.22,50.78C225.46,536.14,221.58,628.06,218.5,809.31Z"/><path d="M218.5,58.59c1.34,71.08,3,127.62,6.71,173.21,4.8,59.33,12.94,97.33,26.41,123.21s33.44,41.76,64.52,51c26.72,8,60.61,11.11,104.34,13.86-43.73,2.75-77.62,5.89-104.34,13.86-31.08,9.27-51,25-64.52,51S230,548.67,225.21,608c-3.68,45.59-5.37,102.13-6.71,173.21-1.34-71.08-3-127.62-6.71-173.21-4.8-59.33-12.94-97.33-26.41-123.21s-33.44-41.76-64.52-51c-26.72-8-60.61-11.11-104.34-13.86C60.25,417.15,94.14,414,120.86,406c31.08-9.27,51-25,64.52-51S207,291.13,211.79,231.8c3.68-45.59,5.37-102.13,6.71-173.21M218.5,0C212.15,397.8,207,407.69,0,419.9,207,432.11,212.15,442,218.5,839.8,224.85,442,230,432.11,437,419.9,230,407.69,224.85,397.8,218.5,0Z"/></g></g></svg>