<svg xmlns="http://www.w3.org/2000/svg" viewBox="0 0 1460.19 941.95"><g id="Layer_2" data-name="Layer 2"><g id="Layer_1-2" data-name="Layer 1"><path d="M990,776.28a44.1,44.1,0,0,1-6.22,2c-4.73.75-3.28,5-4.44,7.66-1.06,2.45,1.38,3.19,3,3.88,1.81.77,4,.74,5.66,1.73a39.5,39.5,0,0,1,7.34,5.87c.57.57.2,2.77-.45,3.73a87.85,87.85,0,0,1-5.84,7.06c-3.32-6.58-9.24-8.54-14.94-11.13-4.09-1.85-8.1-4.2-10.21-8.86-.69-1.51-3.29-2.22-5.13-3-.17-.07-2,2.19-1.69,2.77a7,7,0,0,0,3.16,3.38c4.26,1.82,3.64,5.68,4.21,9.05.51,3-.74,4.73-3.52,6.16-3,1.52-5.15,2.94-8.77.92-3.23-1.79-7.1-1.82-9.8,2.27-1.93,2.91-4.79,3.37-7.76,1a15.51,15.51,0,0,0-3.14-2c-3-1.39-3.61-3-3-6.66.85-5-.31-10.36-.94-15.53-.13-1.07-1.57-2.19-2.65-2.9-1.83-1.21-3.86-2.12-6.18-3.35-1.68,6.58,7.31,9,5.67,15.59-.87-.17-2-.05-2.61-.56-3.86-3.15-8.5-4.35-13.18-5.33-1.48-.31-3.71-.31-4.63.57-2,1.94-5.9,2.81-5.13,7,0,.24-1.5,1.1-2.33,1.14-9,.45-17.92,0-26.45-3.48a8.13,8.13,0,0,0-4.71-.46c-8.78,2.26-17.59,4.47-26.2,7.26-4.45,1.45-8.5,4.08-12.76,6.11a44.27,44.27,0,0,1-4.38,1.45c2-3.48.9-5.35-1.35-7.21-1.16-1-1.53-2.87-2.53-4.93-2,3-6.32,4.09-5.61,9.28.63,4.54-.32,8.92-4.66,11.84a8.16,8.16,0,0,0-2.4,3.27A35.89,35.89,0,0,1,792.71,836c-4.42,3-9.6,3.64-15,2.5a20.45,20.45,0,0,0-5.41.06c-1.57.1-3.12.37-5.22.64l1.4,5.25-5.79,3.35c-2.16-.41-4.23-1.31-4.71-.77-.89,1-.78,2.83-1.23,4.28a5.6,5.6,0,0,1-1.23,2.34c-2.47,2.41-5,4.71-7.92,7.36L745,859.89c-1.57,1.39-3,2.56-1.37,5.2,1,1.62-1.65,5.39-3.69,6-1.28.36-2.52.83-4.66,1.55l4.45,5c-.61,2.15-1.38,5.13-2.38,8a2.41,2.41,0,0,1-1.93,1.17c-2.22-.13-4.55.15-4.25,2.72.15,1.22,2.67,2.18,4.15,3.21.26.18.7.11,1.28.19.13,3.84,1,7.69-1.94,11a2.92,2.92,0,0,0-.35,2.41c1.84,5.77,4,11.46,5.66,17.27a36.62,36.62,0,0,1,1.39,9.07c.07,2.35.47,3.79,3,4.27.89.17,1.62,1.12,2.42,1.72a19.85,19.85,0,0,1-2.61,1.57,21.35,21.35,0,0,1-3.9,1.25c-3.26.7-6.19.7-9.07-1.81a12.57,12.57,0,0,0-6.78-2.44c-5.33-.51-10.73-.3-15-4.48a4.94,4.94,0,0,0-3.41-1.31c-7.78.58-13.49-4.61-20.14-7.1-3.71-1.39-4.29-5.09-5.13-8.55a83.33,83.33,0,0,0-2.88-7.91c-2-5.57-4.13-11.09-5.84-16.75-1.89-6.27-3.92-11.82-10.27-15.61-4.08-2.43-6.6-7.52-9.77-11.45-2.55-3.17-5.27-6.23-7.5-9.62-3-4.51-5.68-9.2-8.19-14-3.08-5.87-6.51-11.18-11.8-15.53-4.23-3.49-7.22-8.48-10.82-12.75-1.09-1.29-2.22-3-3.68-3.46a121.74,121.74,0,0,0-16.11-4.27c-4.09-.72-8.22,0-11.33,3.44A5.17,5.17,0,0,1,580,809.4c-4.77,1.1-7.86,4.48-11,7.85a5.86,5.86,0,0,0-1.65,2.41c-.73,3.52-2.41,5.93-6.2,6.54a3.16,3.16,0,0,0-2.19,1.3c-1.48,3.7-3.91,2.8-6.33,1.41-3.78-2.17-7.37-4.65-11.2-6.71s-7.82-3.56-11.63-5.54a19.63,19.63,0,0,1-5-3.68c-2.13-2.19-3.76-4.86-5.93-7-4.31-4.26-7.28-8.66-8.34-15.17s-5-12.56-7.75-18.8c-.15-.33-.63-.58-.66-.89-.74-9.12-9.74-10.4-14.73-15.47-1.79-1.83-4.76-2.62-6.27-4.6a20.64,20.64,0,0,1-3.68-8.28c-.68-3.44-2.67-4.89-5.43-6.48a17.2,17.2,0,0,1-6.49-6.08c-2.09-3.86-4.64-5.6-9-5.86-14.07-.83-28.12-1.92-42.15-3.17-3.83-.34-5,.86-5.09,4.61s-.84,7.42-1.35,11.48a29.26,29.26,0,0,1-3.25,0c-6.93-.8-13.85-1.67-20.77-2.48q-17.25-2-34.51-4c-9.28-1.07-18.57-2.06-27.83-3.28a17.22,17.22,0,0,1-6.23-2.14c-21.11-12.47-42.13-25.07-63.22-37.57-11.44-6.79-23-13.4-34.43-20.21-2.54-1.51-5.78-2.49-6-6.48,0-.73-2-1.77-3.24-2C201.36,658,194.2,657,187.05,656c-11.45-1.59-22.92-3.14-34.37-4.77-2.57-.37-5.11-1-7.67-1.53-2-.41-3-1.58-2.65-3.74.35-2.31,1.16-4.82-2.29-5.72-.4-.1-.91-1.42-.71-1.88,2.63-6-.45-11.43-2.24-16.64a60.74,60.74,0,0,0-8.54-16c-2-2.76-5.84-4.42-9.13-6-4.12-1.94-7.24-4-7.16-9.3a5.63,5.63,0,0,0-3.28-4.21c-9.81-2.42-16.87-8.53-22-16.7-2.66-4.24-6.24-5.78-10.45-7.37-6.37-2.41-12.6-5.2-18.72-8.17a6.12,6.12,0,0,1-3.52-6.48c.66-6.3,1.16-12.63,1.67-19,.08-1,.28-2.35-.25-2.92-5.79-6.22-5.27-16.09-12.55-21.47a5.78,5.78,0,0,1-1.9-3.91C40.79,492,37,484.89,32.6,478c-2.74-4.22-2-8.79,1.87-12,4.62-3.87,4.64-6.3-.44-9.7-3.8-2.55-7-5.31-8.91-9.69-2.36-5.57-2.39-11.15-1.16-16.88.34-1.57.76-3.12,1.2-4.95l4.53.89-2.11-12.12c-1,.66-1.52.93-1.95,1.3-3.55,3.1-5.48,2.84-8.21-1.09a44.32,44.32,0,0,1-3.24-4.55c-.69-1.34-1.62-3.33-1.12-4.41,3.86-8.15-.42-14.55-4.43-20.8-2-3.09-3.27-6-3.21-9.69,0-1.81-.64-3.63-1-5.45A8.84,8.84,0,0,1,4.08,366c1-5.78,2.12-11.56,3.38-17.3,2.23-10.11,1.44-19.5-5.8-27.64a7.25,7.25,0,0,1-1.24-3.75A45.31,45.31,0,0,1,0,310.2a5.54,5.54,0,0,1,1.22-3.29c3-3.34,6.28-6.41,9.21-9.8a14.2,14.2,0,0,0,2.61-5.1c1.06-3.41,1.22-7.19,2.76-10.32,2.58-5.24,1.43-10.44,1.23-15.75-.1-2.61.57-5.25.88-7.88.17-1.42.86-3.06.39-4.25-2-5.21-.06-10,.83-15,.67-3.7.65-7.54,1.48-11.19A35.28,35.28,0,0,1,24,218.76c1.73-3.19,5.12-5.51,4.52-9.89-.12-.88,1.23-2.1,2.11-2.93,4.45-4.21,7.07-9.41,9.08-15.14,1.13-3.21,3.67-5.89,5.08-9,2.39-5.3,4.2-10.87,6.6-16.16,2.59-5.72,5.82-11.15,8.31-16.9a135.71,135.71,0,0,0,5.39-15.32c1.54-5.19,2.64-10.5,4-15.82l8.8,1.54.64-1.27c-1.64-1.32-3.38-2.53-4.89-4-1.14-1.1-2.55-2.41-2.81-3.81a4,4,0,0,1,2.64-4.71c4-1.8,4.14-3.31,1.53-6.81-2-2.72-1.76-5.11.45-7.68,3-3.48,2.83-3.87-.61-5.28-.76-5.73-1.47-11.07-2.15-16.41a3.55,3.55,0,0,1,0-1.49c1.8-6.08.87-12.11-.53-18.07-.9-3.83.63-6.7,2.71-9.59,1.44-2,2.51-2,4.47-.36a98,98,0,0,0,13.4,10c4.76,2.77,10.13,4.5,15.2,6.76a12.94,12.94,0,0,1,3.07,2c2.09,1.77,4.09,3.65,6.61,5.92l-7.36,7.4c1.08.66,1.68,1,2.3,1.39,4.62,2.56,4.5,2.51,2.61,7.65-1.13,3.08-2.91,4.49-6.21,3.76a11.49,11.49,0,0,0-3-.3c-1.32.06-3.76.3-3.77.51,0,1.9-.23,4.19.72,5.63,2.31,3.47,7.59,3.61,11.36.77.2-.15.34-.39.56-.49,5.84-2.85,8.19-7.22,7.21-13.88-.25-1.72,2.08-4.4,3.9-5.72,3.89-2.83,4.49-4.79,3-9.32a92.38,92.38,0,0,1-2.9-13.34c-.14-.8.8-2,1.55-2.69,2.45-2.24,2-4.85.66-7.16-2.25-3.82-4.92-7.39-8.07-12C127.9,29,134.44,31.12,141,33.13c17.5,5.31,35,10.7,52.55,15.79q21,6.07,42.16,11.47c13.27,3.38,26.64,6.39,40,9.44,15.05,3.45,30.08,7,45.22,10,14.51,2.93,29.13,5.33,43.71,7.86,13.61,2.37,27.22,4.73,40.86,6.87,8.85,1.39,17.76,2.43,26.66,3.55q22.05,2.78,44.12,5.44c5.45.65,10.91,1.23,16.38,1.63,17.15,1.24,34.33,2.21,51.47,3.58,28.26,2.25,56.57,3,84.91,2.93,24.95-.07,49.91.11,74.85-.46,18.19-.43,36.35-1.89,54.53-2.91,4.84-.27,5.63-1.16,7-6.09a68.34,68.34,0,0,1,3.15-7.58c4.51,2.08,4.88,6.19,6.64,9.3a33.64,33.64,0,0,1,1.61,4.17c2.7,6.78,3.85,7.13,11.09,6.46,5-.47,10.17.06,14.24,4,.65.62,2.22,1.11,2.83.76,2.48-1.45,4.76-.82,7.4-.63a25.93,25.93,0,0,0,11.09-1.95c5.63-2.24,5.63-2.52,7.31,3.21.35,1.2.83,2.36,1.22,3.54.64,1.95,1.55,2.29,3.3,1,1-.77,2.67-1.64,3.66-1.31,4.64,1.52,9.54,2.82,13.59,5.4,4.46,2.82,7.08,3.79,10.79.12,3-2.92,6.05-2.4,8.37-.56,3.26,2.6,6.16,1.2,9.45,1a107.84,107.84,0,0,1,16.94.73c2.05.22,1.42,2,.05,3-2.87,2-5.59,4.51-8.79,5.57-11.18,3.7-17.38,12.59-24,21.34-4.1,5.41-9.06,10.16-13.6,15.24-1,1.15-1.91,2.42-3.19,4.06,5.35,2,9.55.35,13.8-1.33,3.69-1.45,7.47-2.67,11.18-4.06,2.46-.92,3,.17,3.16,2.43.31,6.81.39,7.15,7.37,6.64,6.55-.47,13.07-1.46,17.44-7.59,1.11-1.56,3.68-2,5.52-3.14a37.92,37.92,0,0,0,4.68-3.15c2.05-1.7,4-3.55,5.9-5.41,1.68-1.63,3.16-3.47,4.91-5,5.07-4.46,10-9.16,15.47-13.08,2.66-1.9,6.41-2.29,10.58-3.66-1.34,4.76-2.29,9-6.25,10.78-5.93,2.6-5.68,7.38-6,12.52a7.48,7.48,0,0,0,2.12,0c2-.75,4.09-2.49,5.93-2.25,4.61.6,9.46,1.16,12.94,5s7.2,7.67,13.49,5.09c1.41-.58,3.6.58,5.38,1.13,4.69,1.45,7.76-1.27,10.85-4,1.65-1.48,3.1-3.42,5-4.28,7.9-3.53,16-6.72,24-10,0,1.79,0,3.63,0,5.48.12,5,3.72,8.07,8.72,7.08a43,43,0,0,0,7.81-2.49c2.08-.86,3.47-.35,5,1.14,1.75,1.74,3.8,3.15,5.63,4.81a23.69,23.69,0,0,1,2.32,2.76c-1.46.94-2.83,2.41-4.4,2.67-1.41.24-3.06-.82-4.58-1.37-2.31-.84-3.61-.59-4.11,2.33-.83,4.87-1.11,4.39-5.55,2.83s-9.39-2-14.14-2.65c-.82-.12-1.92.87-2.71,1.56-4.12,3.53-7.8,7.37-13.11,9.6-2.93,1.23-4.73,5.22-7,8-.84,1-1.52,2.22-2.35,3.44-4-1.46-.85-3.86-.79-7.1l-7.44,4.18-4.35-4c.9,7.24-3.48,12-6.17,17.42-2.49,5-4.86,9.68-5.14,15.63-.21,4.62-3,9.1-4.51,13.69a30.87,30.87,0,0,0-.73,5c1.18-.5,1.76-.56,2-.87,4.51-5.69,10-10.74,12-18.09.88-3.19,2.92-5.39,7.1-6.71-.86,4.33-1.41,8.14-2.4,11.84-1.22,4.53-3.65,8.9-4,13.46-.44,5.51-.95,10.77-2.66,16.11-1,3,.48,6.8.65,10.25a7,7,0,0,1-.71,3.83c-3.6,5.76-2.29,11.8-1.13,17.77A36.79,36.79,0,0,0,974,305.94c1.45,2.34,1.17,6.11.84,9.14-1.1,10,3.92,17.45,9.75,24.55,2.7,3.28,5.44,3.47,9.37,1.66,8.58-4,13.52-10.85,15.08-19.93,1.44-8.44,3.26-17.05,2.93-25.5-.29-7.49-.66-15.92-8-21.15a2.29,2.29,0,0,1-.9-1.17c-1.89-7.31-5.14-14.26-3.2-22.33,1.13-4.72.2-9.9.64-14.84.49-5.38.45-11,5.73-14.77,1.87-1.34,2.71-4.06,4.27-5.95a19.6,19.6,0,0,1,3.52-2.74c.38,1.21.67,2.44,1.14,3.61a15.52,15.52,0,0,0,2.08,4.22,3.36,3.36,0,0,0,3,.85c.69-.24,1.23-1.68,1.35-2.65a33.92,33.92,0,0,0,.05-5.24c-.15-4,0-7.74,4.6-9.51,1-.4,1.75-1.6,3.06-2.85-1.34-.42-2.32-.45-2.78-1-.84-.91-2.08-2.22-1.93-3.17,1-6.37,7-9.32,12.67-6.48a5,5,0,0,0,1.35.62c5.37.81,10.74,1.57,16.11,2.38a14.94,14.94,0,0,1,3.61.83c2.94,1.3,5.78,2.79,8.69,4.16,2,1,3.25,2,2,4.6s-.87,5.26,1.42,7.75c5.17,5.63,5.3,12.29,3,19.21,0,.12-.15.23-.14.34.19,6.72-3.89,11.42-7.3,16.61-1.21,1.85-.19,5.21-.08,7.87,0,.25.92.78,1.15.67,2.59-1.35,6.12-.43,7.88-4a74.8,74.8,0,0,1,6.79-10.67c2.37-3.29,8.42-3.41,11.13-.41,5,5.48,7.31,12.31,9.93,19.05a92.18,92.18,0,0,0,5.29,11c1.84,3.34-.2,12.22-3.54,12.53-6.61.62-6.89,5.53-7.52,10-.84,6-.8,12.16-1.77,18.14-.38,2.36-2.29,4.58-3.83,6.61-2.33,3.06-2,5,1.69,6a46.66,46.66,0,0,0,8.11,1.2c2.65.25,5.48-.5,7,3,.29.67,3.37.83,4.71.22,4.62-2.11,9-4.66,13.53-7.05a59.64,59.64,0,0,0,5.55-3.05c3-2.05,6-4.15,8.83-6.48,5.74-4.77,11.23-9.85,17-14.53,6.35-5.11,13.63-8.92,18.62-15.84,3.07-4.26,7.86-7.22,11.49-11.12,4.22-4.54,8-9.5,12-14.2,1.67-1.94,1.33-3.46-.35-5.16-3.8-3.84-7.08-8-7.87-14.63,8.09-3.18,16.37-6.45,24.67-9.7a2.14,2.14,0,0,1,1.46-.13c7.28,3.28,12.86-1.61,18.94-4a32.87,32.87,0,0,0,5.66-2.75q8.6-5.43,17-11.12c1.65-1.11,1.77-2.53.23-4.06a12,12,0,0,1-3-3.79c-.48-1.22-.11-2.81.06-4.21.31-2.5.74-5,1.18-7.85-2.15,0-3.65.28-5-.06-1.85-.48-3.93-1.07-5.17-2.34-.51-.52.58-3.13,1.47-4.43,2.24-3.28,5.1-6.16,7.1-9.57,1.44-2.46,1.74-5.57,2.83-8.28,3.81-9.48,7.1-19.61,16.87-24.69,5.89-3.06,12.64-4.42,18.9-6.8,15-5.68,29.88-11.5,44.82-17.26,3.46-1.34,7-2.45,10.37-4a5.81,5.81,0,0,0,2.64-3.43c1.07-4.09,2.18-7.62,7.07-9,5.87-1.68,8.19-8,5.8-13.56-.37-.87,0-2.17.32-3.2,1.07-3.88,3.15-7.73,3.19-11.6.07-9.21-1.44-18.45-1.12-27.64.37-10.52,1.64-21.08,5.76-31,.46-1.11,1.08-2.15,1.76-3.46a37,37,0,0,1,4.9,3.85c1.89,2.1,3.46,1.95,5.32.11,2.45-2.41,4.59-5.07,8.44-5.71,1.29-.22,2.16-2.53,3.37-3.75,1.06-1.08,2.2-2.55,3.52-2.83,3.36-.7,12.65,4.84,13.92,8.15,3,7.78,5.67,15.67,8.68,23.44a125.19,125.19,0,0,0,5.28,11.41,3.62,3.62,0,0,0,2.39,1.51c5,.78,7.7,4.14,10.2,8a8.84,8.84,0,0,0,3.91,3.47c4.48,1.67,8.55,3.35,11.17,8,1.42,2.51,4.63,4.32,3,7.64a63.11,63.11,0,0,1-6.78,11c-3.08,3.93-8.44,5.91-9.88,11.37a1.78,1.78,0,0,1-1.49.88c-4.87-1.51-5.19,3-6.53,5.4-1,1.83-1.68,4-3.84,3.71-1.37-.21-2.46-2.24-3.66-3.47a11.24,11.24,0,0,1-.89-1.26l-4.17,1.78c3.08,6.07,1.15,11.9,0,17.72a7.11,7.11,0,0,1-2,3c-1.85,2.07-3.83,4-5.74,6-2.29,2.42-4.36,5.11-6.91,7.21a12.35,12.35,0,0,0-4.89,7.89c-.76,4.2-3.37,8-4.46,12.19a193.43,193.43,0,0,0-3.86,19.37c-.14.87,1.71,2.47,2.95,3.05,2.71,1.28,4.6,1.87,1.81,5.46-3.47,4.45-.07,11.73,5.1,13.48,1.9.65,3.56,2.94,4.66,4.86,4,7,8.16,8.85,14.56,6,4.43-1.94,5.17-6,1.92-9.55a33.25,33.25,0,0,1-3-4.56l.83-.63c2.59,1.08,5.24,2,7.76,3.26,3.37,1.65,4.39,4.37,2,7.29-3.75,4.58-8.1,8.68-12.29,12.87a2.32,2.32,0,0,1-2.28,0c-2.5-2.43-3.41-.29-4.48,1.41-.92,1.47-1.41,3.5-2.71,4.38-2.18,1.49-4.81,4.36-7.34,0-.46-.78-1.91-1-3.41-1.67-.86,3.05-1.94,5.71-2.29,8.48-.44,3.36-2.26,5.29-5,6.93-3.92,2.36-7.6,5.12-11.51,7.49-4.68,2.83-9.3,5.89-14.3,8-7.6,3.23-12.77,9.2-17.4,15.34-4,5.25-6.49,11.65-9.09,17.78-1,2.38-.66,5.42-.53,8.14,0,.73,1.47,1.71,2.43,2,2.07.61,5.85.4,6.1,1.31a20.71,20.71,0,0,1,.18,9.14c-1.59,8.14-3.58,16.2-5.47,24.28-.73,3.11-1.62,6.19-2.47,9.28-.69,2.5-1.31,5-2.21,7.47-.7,1.91-1.78,3.68-3.12,6.38-1.21-3.85-1.31-7.1-3-8.68s-5.06-1.66-7.64-2.52c-2.16-.73-4.26-1.65-6.5-2.53-1,7.3,1.51,12.65,7.18,15.86a36.54,36.54,0,0,0,4.64,2.42c2.62,1,3.35,2.93,4.15,5.57,2.42,8,.55,15.44-1.32,23.12-1.11,4.54-.79,9.42-1.78,14a65.08,65.08,0,0,1-4.73,13c-3.08-4.94-3.78-9.7-.5-14.54a14.59,14.59,0,0,0,1.52-3.36c.9-2.6-.12-4-2.82-3.66-4.33.48-5.9-1.59-6.6-5.64-.5-2.91-1.53-5.92-5.45-6.71-1.74-.36-3.37-2-4.68-3.46-.59-.65-.33-2.14-.31-3.25,0-.67.68-1.59.43-2-1.62-2.39-3.4-4.68-5.16-7-.58-.76-2-1.76-1.82-2.1,1.94-4.14-1.37-8.76,1.37-12.83,1.55-2.31.73-4.42-1.78-6.75-3,4.9-5.93,9.41-8.59,14.07a4.72,4.72,0,0,0-.06,3.51c2.47,6.72,5,13.44,7.75,20,.76,1.81,2.49,3.22,3.84,4.76,1.06,1.21,2.24,2.32,3.36,3.48-1.33.79-2.66,1.6-4,2.37a20,20,0,0,1-2.2.77c2.39,2.08,4.44,3.75,6.34,5.58,1.28,1.23,2.78,2.52,3.37,4.08.49,1.29.31,3.73-.55,4.38s-3,.1-4.55-.17c-1.69-.29-3.34-.83-5-1.27l-.6,1.1a8.76,8.76,0,0,0,1.69,2c3,1.8,6.09,3.39,9,5.22,1.06.66,2.69,2,2.55,2.67-.26,1.36-1.47,2.64-2.54,3.7a21.5,21.5,0,0,1-3.54,2.34c3.31,2.57,7.61,3.37,8.73,8.2a31.66,31.66,0,0,0-5.64-.78,12.27,12.27,0,0,0-4.86,1.65c4.9,2.39,9.85,4.59,15.28,3.22,4-1,6.7-.27,8.69,3.39a29.89,29.89,0,0,0,3.26,4c-2.92,1.46-2.66,3.27-.91,5.75a57.69,57.69,0,0,1,4,7.5c-4.43,3-8,5.21-11.34,7.72-2.08,1.55-3.66,2.86-5.93.15-.83-1-2.73-1.1-4.15-1.62.07,1.38.06,2.77.22,4.14.27,2.32.65,4.63,1,7.1.84-.1,1.62.05,2-.27,5.23-4.56,11-3.54,16.75-1.53,2.59.91,3.57-.33,4.5-2.44a39.93,39.93,0,0,1,3-4.84c1.39,2.37,4,4.78,3.9,7.09a28,28,0,0,1-3.29,11.68c-1.46,2.77-4.37,4.9-7,6.87-.79.61-3.08.24-4-.51-3.59-2.86-6-2.2-7.19,2.13-.27.94-1.46,1.76-2.41,2.32a28.46,28.46,0,0,1-3.92,1.66c0,.39.07.79.11,1.18l8.74.64c-.57,3.05-.37,6.41-1.85,8.64-1.33,2-4.52,2.77-7,4.15.83,3.27,2.26,3.93,5.46,2,2.56-1.54,5-3.27,7.68-4.6a5,5,0,0,1,3.54.1c.37.13.31,1.81.24,2.77-.44,6.76-5.27,8-10.75,8.92a13.56,13.56,0,0,0-7.2,3.4,100.59,100.59,0,0,0-11.71,14.52c-1.94,3-2.66,7-3.3,10.6-.91,5.09-3,8.36-8.31,10.21a30.15,30.15,0,0,0-18.88,18.2c-2.35,5.88-6.44,11-9.46,16.68-1.55,2.89-2.11,6.34-3.81,9.1-1.84,3-4.49,5.46-6.78,8.16-.63.74-1.77,1.52-1.74,2.25.11,3.27-2.3,4.78-4.19,6.69-2.18,2.21-4.34,4.44-6.54,6.62a5.39,5.39,0,0,1-2,1.61c-4.53,1.22-8.68,2.85-10.12,8l-3.45-1.47c-.24.3-.57.54-.53.66,1.36,4,1.22,7.73-1.32,11.23,2.83,5.26-2.21,8.54-3.15,12.82-1.42,6.51-1.35,13.41-3.2,19.76-2.28,7.8,1,14.81,1.62,22.17a12.74,12.74,0,0,1-2.9,9.59c-4,5-4.14,8.28-.66,13.64.43.67.89,1.32,1.42,2.1.4-5.44-.21-10.88,3.57-15.88,7.64,23.12,18.65,44.19,36.09,61.48-.23.27-.47.54-.7.82l-5.94-1.7c.1,1.05,0,1.61.21,2,3.3,5.23,6.7,10.4,10,15.65,4.18,6.72,8.18,13.54,12.41,20.23,1.67,2.64,3,5.05,3.11,8.48.09,2.67,2.24,5.39,3.82,7.87,3.24,5.11,4.59,10.36,2.81,16.36a13.14,13.14,0,0,0,0,5.92c1.65,8.68.54,17.09-1.73,25.51a17.53,17.53,0,0,0-.39,7.38c.83,4.68-1.13,8.27-3.69,11.71-.52.71-2,1.54-2.51,1.28-5.46-2.64-9,6.68-15.63,1.64.77-.19,1.38-.17,1.7-.46,1.13-1,2.16-2.19,3.23-3.3-1.29-.7-2.58-1.38-3.85-2.09a19.55,19.55,0,0,1-4.09-2.43c-2.35-2.23-4.33-4.84-6.69-7.06-2.06-1.94-4.18-4.3-6.72-5.17-4.73-1.64-6.18-5.17-7.61-9.32a18.52,18.52,0,0,0-4.38-7.05c-2-1.88-3.79-3.21-1.44-6.34-5.77-.79-8-4.43-9.21-9.27-.67-2.7-3-2.25-4.32-.86-1.57,1.66-2.58,1.22-4.14.27-4.71-2.83-8.72-6.14-9.75-12a5.4,5.4,0,0,0-1.56-2.52c-1.79-1.86-1.31-3.59-.49-5.79a22.64,22.64,0,0,0,1.33-7.87c0-1-1.63-2.35-2.8-2.85-.67-.28-2.13.65-2.88,1.38-2.38,2.34-3.24,2.33-4.36-.85a35.07,35.07,0,0,1-2-8.32c-.7-7.92-.79-15.89-1.66-23.78-.62-5.6-3.86-9.88-8.95-12.49-5.32-2.72-10.73-5.25-16-8a8.86,8.86,0,0,1-2.71-2.8c-2.57-3.59-4.65-7.64-7.71-10.71-1.56-1.56-4.8-1.8-7.32-2-3.06-.17-6.16.52-9.26.58-2.73,0-4.32,1.07-4.29,3.93,0,2.46-1.53,3.16-3.36,4.53-4.72,3.55-10.3,5-15.34,7.69-3.29,1.74-5.61.78-7.05-2.21s-3.5-4.16-6.48-5c-1.49-.41-2.92-2.08-3.78-3.54-1.41-2.37-2.74-4-5.9-3.11a8.27,8.27,0,0,1-4.29-.2c-4.42-1.2-8.71-3.06-13.2-3.74-3-.47-6.3.62-9.46,1-2.64.33-5.35,1.24-7.9.92-5.54-.71-7.39.3-9.4,5.41a6.41,6.41,0,0,1-3.92,3.13,30.66,30.66,0,0,1-9.19,1.3c-1.83-.07-3.76-1.42-5.35-2.59-1.15-.84-1.62-2.6-2.77-3.42-.68-.48-2.82-.28-3.05.21-2.83,6-8.1,7.21-13.92,7.62-4.57.32-9.23.35-13.66,1.32a14.25,14.25,0,0,0-7.25,4.3c-5.79,6.74-12.45,6-19.58,3.14-.35-.14-.64-.41-1-.54-4.69-1.62-9.27-4.86-14.18-.15-1.05,1-3.19.9-4.9,1.32,4.4,8,6,9.35,13.93,8.82,1.56-.1,3-1.87,4.52-2.76,1-.59,2.52-1.65,3.19-1.31,1.06.55,2.36,2.19,2.24,3.2-.42,3.51.89,4,3.8,3a42.6,42.6,0,0,0,4.25-1.28C983.39,769.18,987.2,770.55,990,776.28Z"/><path d="M1390.54,250.07c-.91,6.75-35.2,34.06-43.64,35.26a15.88,15.88,0,0,1,4.17-11.52A35.72,35.72,0,0,1,1367.29,263c7.45-2.52,14.87-5.53,20.64-11.34A14.16,14.16,0,0,1,1390.54,250.07Z"/><path d="M923.41,123.39l-8.65,11c-.9-.74-2.23-1.32-2.48-2.21-.17-.62,1-1.78,1.77-2.49,2.67-2.48,5.43-4.86,8.15-7.28Z"/></g></g></svg>